#N canvas 501 77 1364 722 10;
#X obj 141 -300 s tempo;
#X floatatom 141 -322 5 0 0 0 - - -;
#X obj 436 -298 hsl 128 15 0 1 0 0 empty empty empty -2 -8 0 10 -262144
-1 -1 0 0;
#X obj 21 -239 hradio 16 1 0 16 empty empty empty 0 -8 0 10 -262144
-1 -1 0;
#X obj 21 -262 r beat;
#X obj 51 -172 hradio 16 1 0 16 empty empty empty 0 -8 0 10 -262144
-1 -1 0;
#X obj 61 -150 hradio 16 1 0 8 empty empty empty 0 -8 0 10 -262144
-1 -1 0;
#X obj 409 -254 pack f f;
#X obj 409 -229 s bd;
#X obj 409 -322 hradio 16 1 0 8 empty empty empty 0 -8 0 10 -262144
-1 -1 0;
#X obj 428 -155 hsl 128 15 0 1 0 0 empty empty empty -2 -8 0 10 -262144
-1 -1 0 0;
#X obj 407 -109 pack f f;
#X obj 407 -180 hradio 16 1 0 10 empty empty empty 0 -8 0 10 -262144
-1 -1 0;
#X obj 407 -86 s sd;
#X obj 723 -299 hsl 128 15 0 1 0 0 empty empty empty -2 -8 0 10 -262144
-1 -1 0 0;
#X obj 702 -252 pack f f;
#X obj 702 -323 hradio 16 1 0 2 empty empty empty 0 -8 0 10 -262144
-1 -1 0;
#X obj 713 -18 hsl 128 15 0 12 0 0 empty empty empty -2 -8 0 10 -262144
-1 -1 0 0;
#X obj 692 25 pack f f;
#X obj 692 -40 hradio 16 1 0 12 empty empty empty 0 -8 0 10 -262144
-1 -1 0;
#X obj 692 48 s hh;
#X obj 248 -322 hsl 128 15 0 0.5 0 0 empty empty empty -2 -8 0 10 -262144
-1 -1 0 0;
#X obj 245 -300 s shuffle;
#X obj 54 -322 bng 15 250 50 0 empty empty empty 17 7 0 10 -262144
-1 -1;
#X floatatom 192 -322 5 0 0 0 - - -;
#X obj 192 -300 s steps;
#X obj 23 -192 hradio 16 1 0 2 empty empty empty 0 -8 0 10 -262144
-1 -1 0;
#X obj 720 -279 t b f;
#X obj 61 -128 t b f;
#X obj 710 2 t b f;
#X obj 427 -277 t b f;
#X obj 425 -133 t b f;
#X text 68 -263 current step position;
#X text 312 -174 step to edit;
#X text 322 -149 value;
#X text 540 -324 setting;
#X text 564 -300 value;
#X text 121 -116 BD 0 1 0 1 0 1 0 1;
#X text 121 -105 SD 0 0 1 1 0 0 1 1;
#X text 121 -94 CP 0 0 0 0 1 1 1 1;
#X text 121 -80 TT 0 1 0 1 0 1 0 1;
#X obj 702 -230 s tt;
#X obj 418 -12 hsl 128 15 0 12 0 0 empty empty empty -2 -8 0 10 -262144
-1 -1 0 0;
#X obj 397 31 pack f f;
#X obj 397 -34 hradio 16 1 0 8 empty empty empty 0 -8 0 10 -262144
-1 -1 0;
#X obj 415 8 t b f;
#X obj 397 54 s cp;
#X obj 719 -152 hsl 128 15 0 12 0 0 empty empty empty -2 -8 0 10 -262144
-1 -1 0 0;
#X obj 698 -109 pack f f;
#X obj 698 -174 hradio 16 1 0 6 empty empty empty 0 -8 0 10 -262144
-1 -1 0;
#X obj 716 -132 t b f;
#X obj 698 -86 s cb;
#X obj 15 -300 dmach;
#X text 121 -69 CB 0 0 1 1 0 0 1 1;
#X text 121 -58 HH 0 0 0 0 1 1 1 1;
#X obj 23 -77 s step;
#X obj 23 -100 pack f f f;
#X obj 97 -322 bng 15 250 50 0 empty empty empty 17 7 0 10 -262144
-1 -1;
#X obj 97 -300 s stop;
#X obj 54 -300 s play;
#X text 61 -193 sequence;
#X text 604 -258 pan;
#X obj 470 -255 hsl 128 15 0 1 0 0 empty empty empty -2 -8 0 10 -262144
-1 -1 0 1;
#X floatatom 507 -224 5 0 0 0 - - -;
#X msg 467 -276 0.5;
#X obj 467 -225 s bdp;
#X obj 467 -112 hsl 128 15 0 1 0 0 empty empty empty -2 -8 0 10 -262144
-1 -1 0 1;
#X floatatom 504 -81 5 0 0 0 - - -;
#X msg 464 -133 0.5;
#X obj 464 -82 s sdp;
#X obj 459 30 hsl 128 15 0 1 0 0 empty empty empty -2 -8 0 10 -262144
-1 -1 0 1;
#X floatatom 496 61 5 0 0 0 - - -;
#X msg 456 9 0.5;
#X obj 456 60 s cpp;
#X obj 769 -258 hsl 128 15 0 1 0 0 empty empty empty -2 -8 0 10 -262144
-1 -1 0 1;
#X floatatom 806 -227 5 0 0 0 - - -;
#X msg 766 -279 0.5;
#X obj 766 -228 s ttp;
#X obj 760 -112 hsl 128 15 0 1 0 0 empty empty empty -2 -8 0 10 -262144
-1 -1 0 1;
#X floatatom 797 -81 5 0 0 0 - - -;
#X msg 757 -133 0.5;
#X obj 751 24 hsl 128 15 0 1 0 0 empty empty empty -2 -8 0 10 -262144
-1 -1 0 1;
#X floatatom 788 55 5 0 0 0 - - -;
#X msg 748 3 0.5;
#X obj 757 -82 s cbp;
#X obj 748 54 s hhp;
#X connect 1 0 0 0;
#X connect 2 0 30 0;
#X connect 4 0 3 0;
#X connect 5 0 56 1;
#X connect 6 0 28 0;
#X connect 7 0 8 0;
#X connect 9 0 7 0;
#X connect 10 0 31 0;
#X connect 11 0 13 0;
#X connect 12 0 11 0;
#X connect 14 0 27 0;
#X connect 15 0 41 0;
#X connect 16 0 15 0;
#X connect 17 0 29 0;
#X connect 18 0 20 0;
#X connect 19 0 18 0;
#X connect 21 0 22 0;
#X connect 23 0 59 0;
#X connect 24 0 25 0;
#X connect 26 0 56 0;
#X connect 27 0 15 0;
#X connect 27 1 15 1;
#X connect 28 0 56 0;
#X connect 28 1 56 2;
#X connect 29 0 18 0;
#X connect 29 1 18 1;
#X connect 30 0 7 0;
#X connect 30 1 7 1;
#X connect 31 0 11 0;
#X connect 31 1 11 1;
#X connect 42 0 45 0;
#X connect 43 0 46 0;
#X connect 44 0 43 0;
#X connect 45 0 43 0;
#X connect 45 1 43 1;
#X connect 47 0 50 0;
#X connect 48 0 51 0;
#X connect 49 0 48 0;
#X connect 50 0 48 0;
#X connect 50 1 48 1;
#X connect 56 0 55 0;
#X connect 57 0 58 0;
#X connect 62 0 63 0;
#X connect 62 0 65 0;
#X connect 64 0 62 0;
#X connect 66 0 67 0;
#X connect 66 0 69 0;
#X connect 68 0 66 0;
#X connect 70 0 71 0;
#X connect 70 0 73 0;
#X connect 72 0 70 0;
#X connect 74 0 75 0;
#X connect 74 0 77 0;
#X connect 76 0 74 0;
#X connect 78 0 79 0;
#X connect 78 0 84 0;
#X connect 80 0 78 0;
#X connect 81 0 82 0;
#X connect 81 0 85 0;
#X connect 83 0 81 0;
