#N canvas 188 137 743 394 10;
#N canvas 184 102 469 360 bd 0;
#X obj 14 248 outlet~;
#X obj 14 130 perk-bassdrum;
#X obj 14 37 sequencer;
#X obj 104 13 r bd0;
#X obj 142 13 r bd1;
#X obj 180 13 r bd2;
#X obj 218 13 r bd3;
#X obj 256 13 r bd4;
#X obj 294 13 r bd5;
#X obj 332 13 r bd6;
#X obj 370 13 r bd7;
#X msg 104 36 0 \$1;
#X msg 142 36 1 \$1;
#X msg 180 36 2 \$1;
#X msg 218 36 3 \$1;
#X msg 256 36 4 \$1;
#X msg 294 36 5 \$1;
#X msg 332 36 6 \$1;
#X msg 370 36 7 \$1;
#X obj 14 13 r pos;
#X obj 65 13 r bd;
#X connect 1 0 0 0;
#X connect 2 0 1 0;
#X connect 3 0 11 0;
#X connect 4 0 12 0;
#X connect 5 0 13 0;
#X connect 6 0 14 0;
#X connect 7 0 15 0;
#X connect 8 0 16 0;
#X connect 9 0 17 0;
#X connect 10 0 18 0;
#X connect 11 0 1 1;
#X connect 12 0 1 1;
#X connect 13 0 1 1;
#X connect 14 0 1 1;
#X connect 15 0 1 1;
#X connect 16 0 1 1;
#X connect 17 0 1 1;
#X connect 18 0 1 1;
#X connect 19 0 2 0;
#X connect 20 0 2 1;
#X restore 133 -302 pd bd;
#N canvas 40 184 557 370 sd 0;
#X obj 14 273 outlet~;
#X obj 14 127 perk-snare;
#X obj 14 32 sequencer;
#X msg 101 29 0 \$1;
#X msg 139 29 1 \$1;
#X msg 177 29 2 \$1;
#X msg 215 29 3 \$1;
#X msg 253 29 4 \$1;
#X msg 291 29 5 \$1;
#X msg 329 29 6 \$1;
#X msg 367 29 7 \$1;
#X obj 101 6 r sd0;
#X obj 139 6 r sd1;
#X obj 177 6 r sd2;
#X obj 215 6 r sd3;
#X obj 253 6 r sd4;
#X obj 291 6 r sd5;
#X obj 329 6 r sd6;
#X obj 367 6 r sd7;
#X msg 405 29 8 \$1;
#X msg 443 29 9 \$1;
#X obj 405 6 r sd8;
#X obj 443 6 r sd9;
#X obj 14 6 r pos;
#X obj 65 6 r sd;
#X connect 1 0 0 0;
#X connect 2 0 1 0;
#X connect 3 0 1 1;
#X connect 4 0 1 1;
#X connect 5 0 1 1;
#X connect 6 0 1 1;
#X connect 7 0 1 1;
#X connect 8 0 1 1;
#X connect 9 0 1 1;
#X connect 10 0 1 1;
#X connect 11 0 3 0;
#X connect 12 0 4 0;
#X connect 13 0 5 0;
#X connect 14 0 6 0;
#X connect 15 0 7 0;
#X connect 16 0 8 0;
#X connect 17 0 9 0;
#X connect 18 0 10 0;
#X connect 19 0 1 1;
#X connect 20 0 1 1;
#X connect 21 0 19 0;
#X connect 22 0 20 0;
#X connect 23 0 2 0;
#X connect 24 0 2 1;
#X restore 172 -302 pd sd;
#N canvas 1007 186 320 239 tt 0;
#X obj 9 132 outlet~;
#X obj 9 78 perk-hightom;
#X obj 9 26 sequencer;
#X msg 94 21 0 \$1;
#X msg 132 21 1 \$1;
#X obj 94 -2 r tt0;
#X obj 132 -2 r tt1;
#X obj 9 -2 r pos;
#X obj 60 -2 r tt;
#X connect 1 0 0 0;
#X connect 2 0 1 0;
#X connect 3 0 1 1;
#X connect 4 0 1 1;
#X connect 5 0 3 0;
#X connect 6 0 4 0;
#X connect 7 0 2 0;
#X connect 8 0 2 1;
#X restore 211 -302 pd tt;
#N canvas 276 206 618 420 hh 0;
#X obj 10 317 outlet~;
#X obj 9 148 perk-hihat;
#X obj 9 27 sequencer;
#X msg 96 22 0 \$1;
#X msg 134 22 1 \$1;
#X msg 172 22 2 \$1;
#X msg 210 22 3 \$1;
#X msg 248 22 4 \$1;
#X msg 286 22 5 \$1;
#X msg 324 22 6 \$1;
#X msg 362 22 7 \$1;
#X msg 400 22 8 \$1;
#X msg 438 22 9 \$1;
#X obj 96 -1 r hh0;
#X obj 134 -1 r hh1;
#X obj 172 -1 r hh2;
#X obj 210 -1 r hh3;
#X obj 248 -1 r hh4;
#X obj 286 -1 r hh5;
#X obj 324 -1 r hh6;
#X obj 362 -1 r hh7;
#X obj 400 -1 r hh8;
#X obj 438 -1 r hh9;
#X obj 476 -1 r hh10;
#X obj 520 -1 r hh11;
#X msg 476 22 10 \$1;
#X msg 520 22 11 \$1;
#X obj 9 -1 r pos;
#X obj 60 -1 r hh;
#X connect 1 0 0 0;
#X connect 2 0 1 0;
#X connect 3 0 1 1;
#X connect 4 0 1 1;
#X connect 5 0 1 1;
#X connect 6 0 1 1;
#X connect 7 0 1 1;
#X connect 8 0 1 1;
#X connect 9 0 1 1;
#X connect 10 0 1 1;
#X connect 11 0 1 1;
#X connect 12 0 1 1;
#X connect 13 0 3 0;
#X connect 14 0 4 0;
#X connect 15 0 5 0;
#X connect 16 0 6 0;
#X connect 17 0 7 0;
#X connect 18 0 8 0;
#X connect 19 0 9 0;
#X connect 20 0 10 0;
#X connect 21 0 11 0;
#X connect 22 0 12 0;
#X connect 23 0 25 0;
#X connect 24 0 26 0;
#X connect 25 0 1 1;
#X connect 26 0 1 1;
#X connect 27 0 2 0;
#X connect 28 0 2 1;
#X restore 250 -302 pd hh;
#X obj 167 -216 dac~ 1 2;
#X obj 8 -235 tgl 15 0 empty empty empty 17 7 0 10 -262144 -1 -1 0
1;
#X obj 8 -215 metro 125;
#X obj 59 -280 t b f;
#X obj 59 -237 /;
#X msg 59 -258 15000;
#X obj 8 -302 r run;
#X obj 59 -302 r tempo;
#X obj 8 -281 t b b;
#X obj 8 -162 f;
#X obj 36 -162 + 1;
#X msg 35 -191 0;
#X obj 8 -140 mod 8;
#X obj 8 -117 s pos;
#X obj 189 -252 tanh~;
#X text 313 -302 Copyright (C) 2013 Simon Norberg This program is free
software: you can redistribute it and/or modify it under the terms
of the GNU General Public License as published by the Free Software
Foundation \, either version 3 of the License \, or (at your option)
any later version. This program is distributed in the hope that it
will be useful \, but WITHOUT ANY WARRANTY \; without even the implied
warranty of MERCHANTABILITY or FITNESS FOR A PARTICULAR PURPOSE. See
the GNU General Public License for more details. You should have received
a copy of the GNU General Public License along with this program. If
not \, see <http://www.gnu.org/licenses/>.;
#X obj 175 -153 test;
#X connect 0 0 18 0;
#X connect 1 0 18 0;
#X connect 2 0 18 0;
#X connect 3 0 18 0;
#X connect 5 0 6 0;
#X connect 6 0 13 0;
#X connect 7 0 9 0;
#X connect 7 1 8 1;
#X connect 8 0 6 1;
#X connect 9 0 8 0;
#X connect 10 0 12 0;
#X connect 11 0 7 0;
#X connect 12 0 5 0;
#X connect 12 1 15 0;
#X connect 13 0 14 0;
#X connect 13 0 16 0;
#X connect 14 0 13 1;
#X connect 15 0 13 1;
#X connect 16 0 17 0;
#X connect 18 0 4 0;
#X connect 18 0 4 1;
