#N canvas 0 44 1364 722 10;
#X obj -527 -602 dac~ 1 2;
#X obj -737 -751 tgl 15 0 empty empty empty 17 7 0 10 -262144 -1 -1
0 1;
#X obj -675 -798 t b f;
#X obj -675 -755 /;
#X obj -675 -820 r tempo;
#X obj -505 -634 tanh~;
#X obj -737 -730 metro 250;
#X obj -737 -475 s beat;
#X obj -331 -802 perk-bassdrum;
#X obj -146 -802 perk-snare;
#X obj -330 -616 perk-hightom;
#X obj 40 -616 perk-hihat;
#X obj -274 -823 r bd;
#X obj -89 -823 r sd;
#X obj 97 -637 r hh;
#X obj -737 -593 & 1;
#X obj -737 -615 t f f;
#X obj -737 -571 pack;
#X obj -737 -549 route 0 1;
#X obj -675 -549 *;
#X obj -675 -591 t b f;
#X obj -685 -615 r shuffle;
#X msg -675 -776 15000;
#X obj -587 -758 sequencer;
#X obj -737 -681 f;
#X obj -709 -681 + 1;
#X msg -710 -706 0;
#X obj -737 -636 mod 16;
#X obj -704 -658 r steps;
#X obj -587 -805 r beat;
#X obj -610 -693 r~ bdo;
#X obj -568 -693 r~ sdo;
#X obj -331 -687 s~ bdo;
#X obj -146 -663 s~ sdo;
#X obj 40 -454 s~ hho;
#X obj 39 -802 perk-clap;
#X obj -331 -823 r bdi;
#X obj -146 -823 r sdi;
#X obj 40 -637 r hhi;
#X obj -598 -729 s bdi;
#X obj -562 -729 s sdi;
#X obj 39 -823 r cpi;
#X obj 96 -823 r cp;
#X obj 39 -686 s~ cpo;
#X obj -330 -637 r tti;
#X obj -273 -637 r tt;
#X obj -330 -568 s~ tto;
#X obj -480 -758 sequencer;
#X obj -526 -693 r~ cpo;
#X obj -484 -693 r~ tto;
#X obj -145 -616 perk-cowbell;
#X obj -527 -729 s cpi;
#X obj -491 -729 s tti;
#X obj -419 -729 s hhi;
#X obj -455 -729 s cbi;
#X obj -145 -637 r cbi;
#X obj -30 -637 r cb;
#X obj -145 -524 s~ cbo;
#X obj -442 -693 r~ cbo;
#X obj -400 -693 r~ hho;
#X obj -712 -527 pipe;
#X obj -737 -497 route float;
#X obj -480 -805 r step;
#X obj -480 -784 route 0 1;
#X obj -791 -820 r play;
#X obj -749 -820 r stop;
#X msg -791 -799 1;
#X obj -749 -798 t b b b;
#X msg -749 -527 -1;
#X msg -737 -775 0;
#X connect 1 0 6 0;
#X connect 2 0 22 0;
#X connect 2 1 3 1;
#X connect 3 0 6 1;
#X connect 3 0 20 0;
#X connect 4 0 2 0;
#X connect 5 0 0 0;
#X connect 5 0 0 1;
#X connect 6 0 24 0;
#X connect 8 0 32 0;
#X connect 9 0 33 0;
#X connect 10 0 46 0;
#X connect 11 0 34 0;
#X connect 12 0 8 1;
#X connect 13 0 9 1;
#X connect 14 0 11 1;
#X connect 15 0 17 0;
#X connect 16 0 15 0;
#X connect 16 1 17 1;
#X connect 17 0 18 0;
#X connect 18 0 61 0;
#X connect 18 1 60 0;
#X connect 19 0 60 1;
#X connect 20 0 19 0;
#X connect 20 1 19 1;
#X connect 21 0 19 0;
#X connect 22 0 3 0;
#X connect 23 0 39 0;
#X connect 23 1 40 0;
#X connect 23 2 51 0;
#X connect 24 0 25 0;
#X connect 24 0 27 0;
#X connect 25 0 24 1;
#X connect 26 0 24 1;
#X connect 27 0 16 0;
#X connect 28 0 27 1;
#X connect 29 0 23 0;
#X connect 29 0 47 0;
#X connect 30 0 5 0;
#X connect 31 0 5 0;
#X connect 35 0 43 0;
#X connect 36 0 8 0;
#X connect 37 0 9 0;
#X connect 38 0 11 0;
#X connect 41 0 35 0;
#X connect 42 0 35 1;
#X connect 44 0 10 0;
#X connect 45 0 10 1;
#X connect 47 0 52 0;
#X connect 47 1 54 0;
#X connect 47 2 53 0;
#X connect 48 0 5 0;
#X connect 49 0 5 0;
#X connect 50 0 57 0;
#X connect 55 0 50 0;
#X connect 56 0 50 2;
#X connect 58 0 5 0;
#X connect 59 0 5 0;
#X connect 60 0 61 0;
#X connect 61 0 7 0;
#X connect 62 0 63 0;
#X connect 63 0 23 1;
#X connect 63 1 47 1;
#X connect 64 0 66 0;
#X connect 65 0 67 0;
#X connect 66 0 1 0;
#X connect 67 0 68 0;
#X connect 67 1 69 0;
#X connect 67 2 26 0;
#X connect 68 0 61 0;
#X connect 69 0 1 0;
