#N canvas 471 151 1266 623 10;
#X obj -554 -604 dac~ 1 2;
#X obj -723 -840 tgl 15 0 empty empty empty 17 7 0 10 -262144 -1 -1
0 1;
#X obj -661 -887 t b f;
#X obj -661 -844 /;
#X obj -661 -909 r tempo;
#X obj -723 -819 metro 250;
#X obj -723 -564 s beat;
#X obj -300 -908 r bd;
#X obj -83 -908 r sd;
#X obj 135 -675 r hh;
#X obj -723 -682 & 1;
#X obj -723 -704 t f f;
#X obj -723 -660 pack;
#X obj -723 -638 route 0 1;
#X obj -661 -638 *;
#X obj -661 -680 t b f;
#X msg -661 -865 15000;
#X obj -573 -861 sequencer;
#X obj -723 -770 f;
#X obj -695 -770 + 1;
#X msg -696 -795 0;
#X obj -723 -725 mod 16;
#X obj -690 -747 r steps;
#X obj -573 -908 r beat;
#X obj -357 -908 r bdi;
#X obj -140 -908 r sdi;
#X obj 78 -675 r hhi;
#X obj -584 -832 s bdi;
#X obj -548 -832 s sdi;
#X obj 78 -908 r cpi;
#X obj 135 -908 r cp;
#X obj -357 -649 r tti;
#X obj -300 -649 r tt;
#X obj -466 -861 sequencer;
#X obj -513 -832 s cpi;
#X obj -477 -832 s tti;
#X obj -405 -832 s hhi;
#X obj -441 -832 s cbi;
#X obj -140 -649 r cbi;
#X obj -83 -649 r cb;
#X obj -698 -616 pipe;
#X obj -723 -586 route float;
#X obj -466 -908 r step;
#X obj -466 -887 route 0 1;
#X obj -777 -909 r play;
#X obj -735 -909 r stop;
#X msg -777 -888 1;
#X obj -735 -887 t b b b;
#X msg -735 -616 -1;
#X msg -723 -864 0;
#X obj -234 -765 r bdp;
#X obj -17 -744 r sdp;
#X obj 201 -765 r cpp;
#X obj -234 -573 r ttp;
#X obj -17 -532 r cbp;
#X obj 201 -488 r hhp;
#X obj -357 -721 throw~ left;
#X obj -234 -722 throw~ right;
#X obj -568 -756 catch~ left;
#X obj -494 -756 catch~ right;
#X obj -140 -700 throw~ left;
#X obj -17 -700 throw~ right;
#X obj 78 -721 throw~ left;
#X obj 201 -722 throw~ right;
#X obj -357 -529 throw~ left;
#X obj -234 -529 throw~ right;
#X obj -140 -488 throw~ left;
#X obj -17 -488 throw~ right;
#X obj 78 -443 throw~ left;
#X obj 201 -444 throw~ right;
#X obj -357 -887 DIY2/perk-bassdrum;
#X obj -140 -887 DIY2/perk-snare;
#X obj 78 -887 DIY2/perk-clap;
#X obj -357 -628 DIY2/perk-lowtom;
#X obj -140 -628 DIY2/perk-cowbell;
#X obj 78 -654 DIY2/perk-hihat;
#X obj -543 -715 limiter~ 50 1;
#X obj -565 -677 z~ 64;
#X obj -502 -676 z~ 64;
#X obj -565 -639 *~;
#X obj -502 -638 *~;
#X obj -671 -704 r swing;
#X obj -357 -744 pan-0.1.2/linear_pan~;
#X obj -140 -723 pan-0.1.2/linear_pan~;
#X obj 78 -744 pan-0.1.2/linear_pan~;
#X obj -357 -552 pan-0.1.2/linear_pan~;
#X obj -140 -511 pan-0.1.2/linear_pan~;
#X obj 78 -466 pan-0.1.2/linear_pan~;
#X obj -357 -768 *~ 0.7;
#X obj -140 -746 *~ 0.7;
#X obj 78 -768 *~ 0.7;
#X obj -357 -577 *~ 0.7;
#X obj -140 -534 *~ 0.7;
#X obj 78 -490 *~ 0.7;
#X connect 1 0 5 0;
#X connect 2 0 16 0;
#X connect 2 1 3 1;
#X connect 3 0 5 1;
#X connect 3 0 15 0;
#X connect 4 0 2 0;
#X connect 5 0 18 0;
#X connect 7 0 70 1;
#X connect 8 0 71 1;
#X connect 9 0 75 1;
#X connect 10 0 12 0;
#X connect 11 0 10 0;
#X connect 11 1 12 1;
#X connect 12 0 13 0;
#X connect 13 0 41 0;
#X connect 13 1 40 0;
#X connect 14 0 40 1;
#X connect 15 0 14 0;
#X connect 15 1 14 1;
#X connect 16 0 3 0;
#X connect 17 0 27 0;
#X connect 17 1 28 0;
#X connect 17 2 34 0;
#X connect 18 0 19 0;
#X connect 18 0 21 0;
#X connect 19 0 18 1;
#X connect 20 0 18 1;
#X connect 21 0 11 0;
#X connect 22 0 21 1;
#X connect 23 0 17 0;
#X connect 23 0 33 0;
#X connect 24 0 70 0;
#X connect 25 0 71 0;
#X connect 26 0 75 0;
#X connect 29 0 72 0;
#X connect 30 0 72 1;
#X connect 31 0 73 0;
#X connect 32 0 73 1;
#X connect 33 0 35 0;
#X connect 33 1 37 0;
#X connect 33 2 36 0;
#X connect 38 0 74 0;
#X connect 39 0 74 1;
#X connect 40 0 41 0;
#X connect 41 0 6 0;
#X connect 42 0 43 0;
#X connect 43 0 17 1;
#X connect 43 1 33 1;
#X connect 44 0 46 0;
#X connect 45 0 47 0;
#X connect 46 0 1 0;
#X connect 47 0 48 0;
#X connect 47 1 49 0;
#X connect 47 2 20 0;
#X connect 48 0 41 0;
#X connect 49 0 1 0;
#X connect 50 0 82 1;
#X connect 51 0 83 1;
#X connect 52 0 84 1;
#X connect 53 0 85 1;
#X connect 54 0 86 1;
#X connect 55 0 87 1;
#X connect 58 0 77 0;
#X connect 58 0 76 0;
#X connect 59 0 78 0;
#X connect 59 0 76 1;
#X connect 70 0 88 0;
#X connect 71 0 89 0;
#X connect 72 0 90 0;
#X connect 73 0 91 0;
#X connect 74 0 92 0;
#X connect 75 0 93 0;
#X connect 76 0 79 1;
#X connect 76 0 80 1;
#X connect 77 0 79 0;
#X connect 78 0 80 0;
#X connect 79 0 0 0;
#X connect 80 0 0 1;
#X connect 81 0 14 0;
#X connect 82 0 56 0;
#X connect 82 1 57 0;
#X connect 83 0 60 0;
#X connect 83 1 61 0;
#X connect 84 0 62 0;
#X connect 84 1 63 0;
#X connect 85 0 64 0;
#X connect 85 1 65 0;
#X connect 86 0 66 0;
#X connect 86 1 67 0;
#X connect 87 0 68 0;
#X connect 87 1 69 0;
#X connect 88 0 82 0;
#X connect 89 0 83 0;
#X connect 90 0 84 0;
#X connect 91 0 85 0;
#X connect 92 0 86 0;
#X connect 93 0 87 0;
