#N canvas 0 44 749 722 10;
#X obj 61 -208 f 0;
#X obj 85 -208 f 0;
#X obj 109 -208 f 0;
#X obj 133 -208 f 0;
#X obj 157 -208 f 0;
#X obj 181 -208 f 0;
#X obj 205 -208 f 0;
#X obj 229 -208 f 0;
#X obj 253 -208 f 0;
#X obj 277 -208 f 0;
#X obj 301 -208 f 0;
#X obj 325 -208 f 0;
#X obj 349 -208 f 0;
#X obj 373 -208 f 0;
#X obj 397 -208 f 0;
#X obj 421 -208 f 0;
#X obj 445 -208 f 0;
#X obj 10 -293 sel 0 1 2 3 4 5 6 7 8 9 10 11 12 13 14 15;
#X obj 266 -293 route 0 1 2 3 4 5 6 7 8 9 10 11 12 13 14 15;
#X obj 10 -316 inlet beat;
#X obj 266 -316 inlet step;
#X obj 248 -66 outlet;
#X obj 290 -66 outlet;
#X obj 332 -66 outlet;
#X obj 248 -112 sel 1 2 3 4 5 6 7;
#X connect 0 0 24 0;
#X connect 1 0 24 0;
#X connect 2 0 24 0;
#X connect 3 0 24 0;
#X connect 4 0 24 0;
#X connect 5 0 24 0;
#X connect 6 0 24 0;
#X connect 7 0 24 0;
#X connect 8 0 24 0;
#X connect 9 0 24 0;
#X connect 10 0 24 0;
#X connect 11 0 24 0;
#X connect 12 0 24 0;
#X connect 13 0 24 0;
#X connect 14 0 24 0;
#X connect 15 0 24 0;
#X connect 16 0 24 0;
#X connect 17 0 0 0;
#X connect 17 1 1 0;
#X connect 17 2 2 0;
#X connect 17 3 3 0;
#X connect 17 4 4 0;
#X connect 17 5 5 0;
#X connect 17 6 6 0;
#X connect 17 7 7 0;
#X connect 17 8 8 0;
#X connect 17 9 9 0;
#X connect 17 10 10 0;
#X connect 17 11 11 0;
#X connect 17 12 12 0;
#X connect 17 13 13 0;
#X connect 17 14 14 0;
#X connect 17 15 15 0;
#X connect 17 16 16 0;
#X connect 18 0 0 1;
#X connect 18 1 1 1;
#X connect 18 2 2 1;
#X connect 18 3 3 1;
#X connect 18 4 4 1;
#X connect 18 5 5 1;
#X connect 18 6 6 1;
#X connect 18 7 7 1;
#X connect 18 8 8 1;
#X connect 18 9 9 1;
#X connect 18 10 10 1;
#X connect 18 11 11 1;
#X connect 18 12 12 1;
#X connect 18 13 13 1;
#X connect 18 14 14 1;
#X connect 18 15 15 1;
#X connect 18 16 16 1;
#X connect 19 0 17 0;
#X connect 20 0 18 0;
#X connect 24 0 21 0;
#X connect 24 1 22 0;
#X connect 24 2 21 0;
#X connect 24 2 22 0;
#X connect 24 3 23 0;
#X connect 24 4 21 0;
#X connect 24 4 23 0;
#X connect 24 5 22 0;
#X connect 24 5 23 0;
#X connect 24 6 21 0;
#X connect 24 6 22 0;
#X connect 24 6 23 0;
