#N canvas 645 190 564 509 10;
#X obj 153 54 inlet;
#X obj 154 463 outlet;
#X obj 153 395 list;
#X obj 336 190 r SSSAD;
#X obj 295 130 inlet;
#X obj 56 308 r SSSAD_ADMIN;
#X obj 56 356 b;
#X obj 56 334 route set;
#X obj 153 81 b;
#X obj 222 231 s SSSAD_ADMIN;
#X obj 222 201 list;
#X obj 216 44 r SSSAD_ADMIN;
#X obj 219 91 t b;
#X obj 218 68 route save;
#X obj 295 152 list prepend persist \$1;
#X obj 336 216 route \$1;
#X obj 153 425 route bang;
#X obj 336 240 t a a;
#X connect 0 0 8 0;
#X connect 2 0 16 0;
#X connect 3 0 15 0;
#X connect 4 0 14 0;
#X connect 5 0 7 0;
#X connect 6 0 2 0;
#X connect 7 0 6 0;
#X connect 8 0 2 0;
#X connect 10 0 9 0;
#X connect 11 0 13 0;
#X connect 12 0 10 0;
#X connect 13 0 12 0;
#X connect 14 0 10 1;
#X connect 15 0 17 0;
#X connect 16 1 1 0;
#X connect 17 0 10 1;
#X connect 17 1 2 1;
