#N canvas 613 278 490 264 10;
#X obj 43 -16 inlet;
#X obj 5 -16 inlet;
#X obj 5 49 outlet;
#X obj 43 6 tgl 15 0 empty empty empty 17 7 0 10 -262144 -1 -1 0 1
;
#X obj 5 28 spigot;
#X text 102 -13 Copyright (C) 2013 Simon Norberg This program is free
software: you can redistribute it and/or modify it under the terms
of the GNU General Public License as published by the Free Software
Foundation \, either version 3 of the License \, or (at your option)
any later version. This program is distributed in the hope that it
will be useful \, but WITHOUT ANY WARRANTY \; without even the implied
warranty of MERCHANTABILITY or FITNESS FOR A PARTICULAR PURPOSE. See
the GNU General Public License for more details. You should have received
a copy of the GNU General Public License along with this program. If
not \, see <http://www.gnu.org/licenses/>.;
#X connect 0 0 3 0;
#X connect 1 0 4 0;
#X connect 3 0 4 1;
#X connect 4 0 2 0;
